//-------------------------------------------------------------------
<region>
sample=/05/09/sample-001.wav
lokey=68
hikey=71
pitch_keycenter=68
hirand=0.25
seq_length=2 seq_position=1

<region>
sample=/05/09/sample-002.wav
lokey=68
hikey=71
pitch_keycenter=68
lorand=0.25
hirand=0.5
seq_length=2 seq_position=1

<region>
sample=/05/09/sample-003.wav
lokey=68
hikey=71
pitch_keycenter=68
lorand=0.5
hirand=0.75
seq_length=2 seq_position=1

<region>
sample=/05/09/sample-004.wav
lokey=68
hikey=71
pitch_keycenter=68
lorand=0.75
seq_length=2 seq_position=1


//-------------------------------------------------------------------
<region>
sample=/05/09/sample-005.wav
lokey=68
hikey=71
pitch_keycenter=68
hirand=0.25
seq_length=2 seq_position=2

<region>
sample=/05/09/sample-006.wav
lokey=68
hikey=71
pitch_keycenter=68
lorand=0.25
hirand=0.5
seq_length=2 seq_position=2

<region>
sample=/05/09/sample-007.wav
lokey=68
hikey=71
pitch_keycenter=68
lorand=0.5
hirand=0.75
seq_length=2 seq_position=2

<region>
sample=/05/09/sample-008.wav
lokey=68
hikey=71
pitch_keycenter=68
lorand=0.75
seq_length=2 seq_position=2